
Remux
 
http://en.wikipedia.org/wiki/Remux


*********************************************************
 
Ethaaet Hob 2011 Arabic Dvd Remux - alrmothe 

*********************************************************

TiTLE: Asad and 4Cats
YEAR:2012
GENRE : Comedy
elcinema URL : http://www.elcinema.com/work/wk1537236/
SIZE : 3.10 GB
Overall bit rate:4573 Kbps
Sub: Arabic,English,French
The same subtitle format used on DVDs
 
*********************************************************

Video
Format : Matroska
Format : MPEG Video
Format version : Version 2
Format profile : Main@Main
Format settings, BVOP : No
Format settings, Matrix : Custom
Codec ID : V_MPEG2
Codec ID/Info : MPEG 1 or 2 Video
Duration : 1h 37mn
Bit rate : 4290 Kbps
Maximum bit rate : 6000 Kbps
Width : 720 pixels
Height : 576 pixels
Display aspect ratio : 4:3
Frame rate mode : Constant
Frame rate : 25.000 fps
Standard : PAL
Color space : YUV
Chroma subsampling : 4:2:0
Bit depth : 8 bits
Compression mode : Lossy
Bits/(Pixel*Frame) : 0.414
Stream size : 2.91 GiB (94%)
Title : Ethaaet Hob 2011 Arabic Dvd Remux - alrmothe
Language : Arabic
Default : Yes
Forced : No

Audio
Format : AC-3
Format/Info : Audio Coding 3
Mode extension : CM (complete main)
Format settings, Endianness : Big
Muxing mode : Header stripping
Codec ID : A_AC3
Bit rate mode : Constant
Bit rate : 192 Kbps
Channel(s) : 2 channels
Channel positions : Front: L R
Sampling rate : 48.0 KHz
Bit depth : 16 bits
Compression mode : Lossy
Stream size : 133 MiB (4%)
Title : AC3 , 2
Language : Arabic
Default : Yes
Forced : No
*********************************************************

Screenshots 
http://img600.imageshack.us/img600/5320/vlcsnap2013050113h35m49.png 
http://img706.imageshack.us/img706/262/vlcsnap2013050113h35m56.png 
http://img202.imageshack.us/img202/477/vlcsnap2013050115h01m06.png 
http://img843.imageshack.us/img843/2259/81188890.png
